<svg xmlns="http://www.w3.org/2000/svg" xmlns:xlink="http://www.w3.org/1999/xlink" viewBox="0 0 430 430" width="430" height="430" preserveAspectRatio="xMidYMid meet" style="width: 100%; height: 100%; transform: translate3d(0px, 0px, 0px); content-visibility: visible;"><defs><clipPath id="__lottie_element_4870"><rect width="430" height="430" x="0" y="0"/></clipPath><clipPath id="__lottie_element_4872"><path d="M0,0 L430,0 L430,430 L0,430z"/></clipPath><clipPath id="__lottie_element_4877"><path d="M0,0 L430,0 L430,430 L0,430z"/></clipPath><clipPath id="__lottie_element_4881"><path d="M0,0 L430,0 L430,430 L0,430z"/></clipPath><g id="__lottie_element_4884"><g clip-path="url(#__lottie_element_4885)" transform="matrix(1,0,0,1,0,10)" opacity="1" style="display: block;"><g transform="matrix(0.7071067690849304,-0.7071067690849304,0.7071067690849304,0.7071067690849304,211.443603515625,204.69808959960938)" opacity="1" style="display: none;"><g opacity="1" transform="matrix(1,0,0,1,0,0)"><path class="primary" fill="rgb(21,198,45)" fill-opacity="1" d=" M-37.27021026611328,24.397768020629883 C-37.27021026611328,24.397768020629883 113.05084991455078,23.925580978393555 113.05084991455078,23.925580978393555 C113.05084991455078,23.925580978393555 113.05084991455078,26.679405212402344 113.05084991455078,26.679405212402344 C113.05084991455078,26.679405212402344 144.46775817871094,26.679405212402344 144.46775817871094,26.679405212402344 C144.46775817871094,26.679405212402344 144.46775817871094,24.968088150024414 144.46775817871094,24.968088150024414 C144.46775817871094,24.968088150024414 175.88475036621094,24.968088150024414 175.88475036621094,24.968088150024414 C175.88475036621094,24.968088150024414 175.88475036621094,26.679405212402344 175.88475036621094,26.679405212402344 C175.88475036621094,26.679405212402344 207.3008575439453,26.679405212402344 207.3008575439453,26.679405212402344 C207.3008575439453,26.679405212402344 207.3008575439453,23.925580978393555 207.3008575439453,23.925580978393555 C207.3008575439453,23.925580978393555 220.27175903320312,23.918664932250977 220.27175903320312,23.918664932250977 C226.4066619873047,23.918664932250977 231.26559448242188,19.85100746154785 231.26559448242188,13.716007232666016 C231.26559448242188,13.716007232666016 231.24478149414062,5.709115505218506 231.24478149414062,5.709115505218506 C231.24478149414062,-0.4258843958377838 226.2717742919922,-5.398884296417236 220.1377716064453,-5.398884296417236 C220.1377716064453,-5.398884296417236 -37.40419006347656,-4.919780731201172 -37.40419006347656,-4.919780731201172"/></g></g><g transform="matrix(0.7071067690849304,-0.7071067690849304,0.7071067690849304,0.7071067690849304,211.443603515625,204.69808959960938)" opacity="1" style="display: block;"><g opacity="1" transform="matrix(1,0,0,1,0,0)"><path class="primary" fill="rgb(21,198,45)" fill-opacity="1" d=" M-36.78499984741211,61.933998107910156 C-36.78499984741211,61.933998107910156 111.38600158691406,61.63100051879883 111.38600158691406,61.63100051879883 C111.38600158691406,61.63100051879883 111.38600158691406,90.66699981689453 111.38600158691406,90.66699981689453 C111.38600158691406,90.66699981689453 142.80299377441406,90.66699981689453 142.80299377441406,90.66699981689453 C142.80299377441406,90.66699981689453 142.80299377441406,72.625 142.80299377441406,72.625 C142.80299377441406,72.625 174.22000122070312,72.625 174.22000122070312,72.625 C174.22000122070312,72.625 174.22000122070312,90.66699981689453 174.22000122070312,90.66699981689453 C174.22000122070312,90.66699981689453 205.63600158691406,90.66600036621094 205.63600158691406,90.66600036621094 C205.63600158691406,90.66600036621094 205.63600158691406,61.63100051879883 205.63600158691406,61.63100051879883 C205.63600158691406,61.63100051879883 218.60699462890625,61.558998107910156 218.60699462890625,61.558998107910156 C224.74200439453125,61.558998107910156 229.71400451660156,56.58599853515625 229.71400451660156,50.45100021362305 C229.71400451660156,50.45100021362305 231.12899780273438,-0.17499999701976776 231.12899780273438,-0.17499999701976776 C231.12899780273438,-6.309999942779541 226.15499877929688,-11.282999992370605 220.02099609375,-11.282999992370605 C220.02099609375,-11.282999992370605 -35.37099838256836,-10.907999992370605 -35.37099838256836,-10.907999992370605"/></g></g><g transform="matrix(0.7071067690849304,-0.7071067690849304,-0.7071067690849304,-0.7071067690849304,221.54391479492188,216.44540405273438)" opacity="1" style="display: none;"><g opacity="1" transform="matrix(1,0,0,1,0,0)"><path class="primary" fill="rgb(21,198,45)" fill-opacity="1" d=" M-37.118656158447266,22.070884704589844 C-37.118656158447266,22.070884704589844 114.66543579101562,21.54383087158203 114.66543579101562,21.54383087158203 C114.66543579101562,21.54383087158203 114.66543579101562,27.988679885864258 114.66543579101562,27.988679885864258 C114.66543579101562,27.988679885864258 144.3173828125,28.06700325012207 144.3173828125,28.06700325012207 C144.3173828125,28.06700325012207 144.3173828125,24.0625057220459 144.3173828125,24.0625057220459 C144.3173828125,24.0625057220459 177.4994354248047,23.98396110534668 177.4994354248047,23.98396110534668 C177.4994354248047,23.98396110534668 177.4994354248047,27.988679885864258 177.4994354248047,27.988679885864258 C177.4994354248047,27.988679885864258 207.15060424804688,28.06700325012207 207.15060424804688,28.06700325012207 C207.15060424804688,28.06700325012207 207.15060424804688,21.622377395629883 207.15060424804688,21.622377395629883 C207.15060424804688,21.622377395629883 220.1213836669922,21.606401443481445 220.1213836669922,21.606401443481445 C226.25637817382812,21.606401443481445 231.13111877441406,17.411521911621094 231.13111877441406,11.276520729064941 C231.13111877441406,11.276520729064941 231.22837829589844,4.882778644561768 231.22837829589844,4.882778644561768 C231.22837829589844,-1.2522215843200684 226.25559997558594,-6.225221633911133 220.1213836669922,-6.225221633911133 C220.1213836669922,-6.225221633911133 -37.118656158447266,-5.760737895965576 -37.118656158447266,-5.760737895965576"/></g></g></g></g><clipPath id="__lottie_element_4885"><path d="M0,0 L430,0 L430,430 L0,430z"/></clipPath><clipPath id="__lottie_element_4895"><path d="M0,0 L430,0 L430,430 L0,430z"/></clipPath><clipPath id="__lottie_element_4899"><path d="M0,0 L430,0 L430,430 L0,430z"/></clipPath><g id="__lottie_element_4902"><g clip-path="url(#__lottie_element_4903)" transform="matrix(1,0,0,1,2.75,9.5)" opacity="1" style="display: block;"><g transform="matrix(0.7071067690849304,-0.7071067690849304,0.7071067690849304,0.7071067690849304,211.443603515625,204.69808959960938)" opacity="1" style="display: none;"><path class="primary" fill="rgb(21,198,45)" fill-opacity="1" d=" M-76.50474548339844,-7.583450794219971 C-76.50474548339844,-7.583450794219971 -75.06586456298828,-1.274510145187378 -75.15300750732422,7.197312831878662 C-75.23700714111328,15.494806289672852 -76.4640121459961,22.396183013916016 -76.4640121459961,22.396183013916016 C-76.4640121459961,22.396183013916016 -47.86716842651367,22.292173385620117 -47.86716842651367,22.292173385620117 C-40.94416809082031,22.292173385620117 -35.33116912841797,16.6790771484375 -35.33116912841797,9.756077766418457 C-35.33116912841797,9.756077766418457 -35.33116912841797,9.756077766418457 -35.33116912841797,9.756077766418457 C-35.33116912841797,9.756077766418457 -35.37099838256836,5.167996406555176 -35.37099838256836,5.167996406555176 C-35.37099838256836,5.167996406555176 -35.37099838256836,5.167996406555176 -35.37099838256836,5.167996406555176 C-35.37099838256836,-1.7550034523010254 -40.98400115966797,-7.3680033683776855 -47.90700149536133,-7.3680033683776855 C-47.90700149536133,-7.3680033683776855 -76.50474548339844,-7.583450794219971 -76.50474548339844,-7.583450794219971z"/><g opacity="1" transform="matrix(1,0,0,1,0,0)"/></g><g transform="matrix(0.7071067690849304,-0.7071067690849304,0.7071067690849304,0.7071067690849304,211.443603515625,204.69808959960938)" opacity="1" style="display: block;"><path class="primary" fill="rgb(21,198,45)" fill-opacity="1" d=" M-83.70600128173828,-30.30699920654297 C-83.70600128173828,-30.30699920654297 -74.43399810791016,-19.19300079345703 -74.51300048828125,7.677999973297119 C-74.59700012207031,36.138999938964844 -83.70600128173828,44.20000076293945 -83.70600128173828,44.20000076293945 C-83.70600128173828,44.20000076293945 -47.90700149536133,44.736000061035156 -47.90700149536133,44.736000061035156 C-40.98400115966797,44.736000061035156 -35.37099838256836,39.12200164794922 -35.37099838256836,32.19900131225586 C-35.37099838256836,32.19900131225586 -35.37099838256836,32.19900131225586 -35.37099838256836,32.19900131225586 C-35.37099838256836,32.19900131225586 -35.37099838256836,-17.236000061035156 -35.37099838256836,-17.236000061035156 C-35.37099838256836,-17.236000061035156 -35.37099838256836,-17.236000061035156 -35.37099838256836,-17.236000061035156 C-35.37099838256836,-24.159000396728516 -40.98400115966797,-29.77199935913086 -47.90700149536133,-29.77199935913086 C-47.90700149536133,-29.77199935913086 -83.70600128173828,-30.30699920654297 -83.70600128173828,-30.30699920654297z"/><g opacity="1" transform="matrix(1,0,0,1,0,0)"/></g><g transform="matrix(0.7071067690849304,-0.7071067690849304,-0.7071067690849304,-0.7071067690849304,221.54391479492188,216.44540405273438)" opacity="1" style="display: none;"><path class="primary" fill="rgb(21,198,45)" fill-opacity="1" d=" M-77.51605987548828,-10.774638175964355 C-77.51605987548828,-10.774638175964355 -74.97712707519531,-3.7908976078033447 -75.0631332397461,7.26481819152832 C-75.14713287353516,18.393978118896484 -77.48104095458984,25.458208084106445 -77.48104095458984,25.458208084106445 C-77.48104095458984,25.458208084106445 -47.872764587402344,25.444076538085938 -47.872764587402344,25.444076538085938 C-40.949764251708984,25.444076538085938 -35.336761474609375,19.830854415893555 -35.336761474609375,12.907855033874512 C-35.336761474609375,12.907855033874512 -35.336761474609375,12.907855033874512 -35.336761474609375,12.907855033874512 C-35.336761474609375,12.907855033874512 -35.37099838256836,2.021685838699341 -35.37099838256836,2.021685838699341 C-35.37099838256836,2.021685838699341 -35.37099838256836,2.021685838699341 -35.37099838256836,2.021685838699341 C-35.37099838256836,-4.9013142585754395 -40.98400115966797,-10.514313697814941 -47.90700149536133,-10.514313697814941 C-47.90700149536133,-10.514313697814941 -77.51605987548828,-10.774638175964355 -77.51605987548828,-10.774638175964355z"/><g opacity="1" transform="matrix(1,0,0,1,0,0)"/></g></g></g><clipPath id="__lottie_element_4903"><path d="M0,0 L430,0 L430,430 L0,430z"/></clipPath><clipPath id="__lottie_element_4907"><path d="M0,0 L430,0 L430,430 L0,430z"/></clipPath><clipPath id="__lottie_element_4911"><path d="M0,0 L430,0 L430,430 L0,430z"/></clipPath><g id="__lottie_element_4914"><g clip-path="url(#__lottie_element_4915)" transform="matrix(1,0,0,1,2.75,9.5)" opacity="1" style="display: block;"><g transform="matrix(0.7071067690849304,-0.7071067690849304,0.7071067690849304,0.7071067690849304,211.443603515625,204.69808959960938)" opacity="1" style="display: none;"><g opacity="1" transform="matrix(1,0,0,1,0,0)"><path class="primary" fill="rgb(21,198,45)" fill-opacity="1" d=" M-68.97665405273438,-3.7210774421691895 C-68.97665405273438,0.35360729694366455 -102.98574829101562,3.6557657718658447 -144.93875122070312,3.6557657718658447 C-186.89175415039062,3.6557657718658447 -220.9016571044922,0.35360729694366455 -220.9016571044922,-3.7210774421691895 C-220.9016571044922,-7.795762062072754 -186.89175415039062,-11.09873104095459 -144.93875122070312,-11.09873104095459 C-102.98574829101562,-11.09873104095459 -68.97665405273438,-7.795762062072754 -68.97665405273438,-3.7210774421691895z"/></g></g><g transform="matrix(0.7071067690849304,-0.7071067690849304,0.7071067690849304,0.7071067690849304,211.443603515625,204.69808959960938)" opacity="1" style="display: block;"><g opacity="1" transform="matrix(1,0,0,1,0,0)"><path class="primary" fill="rgb(21,198,45)" fill-opacity="1" d=" M-69.00199890136719,7.142000198364258 C-69.00199890136719,-34.59199905395508 -103.01200103759766,-68.42500305175781 -144.96499633789062,-68.42500305175781 C-186.91799926757812,-68.42500305175781 -220.927001953125,-34.59199905395508 -220.927001953125,7.142000198364258 C-220.927001953125,48.875999450683594 -186.91799926757812,82.70800018310547 -144.96499633789062,82.70800018310547 C-103.01200103759766,82.70800018310547 -69.00199890136719,48.875999450683594 -69.00199890136719,7.142000198364258z"/></g></g><g transform="matrix(0.7071067690849304,-0.7071067690849304,-0.7071067690849304,-0.7071067690849304,221.54391479492188,216.44540405273438)" opacity="1" style="display: none;"><g opacity="1" transform="matrix(1,0,0,1,0,0)"><path class="primary" fill="rgb(21,198,45)" fill-opacity="1" d=" M-68.90161895751953,17.257556915283203 C-68.90161895751953,8.083199501037598 -102.91084289550781,0.6448001265525818 -144.8638458251953,0.6448001265525818 C-186.8168487548828,0.6448001265525818 -220.82662963867188,8.083199501037598 -220.82662963867188,17.257556915283203 C-220.82662963867188,26.431913375854492 -186.8168487548828,33.86931228637695 -144.8638458251953,33.86931228637695 C-102.91084289550781,33.86931228637695 -68.90161895751953,26.431913375854492 -68.90161895751953,17.257556915283203z"/></g></g></g></g><clipPath id="__lottie_element_4915"><path d="M0,0 L430,0 L430,430 L0,430z"/></clipPath><filter id="__lottie_element_4921" filterUnits="objectBoundingBox" x="0%" y="0%" width="100%" height="100%"><feComponentTransfer in="SourceGraphic"><feFuncA type="table" tableValues="1.0 0.0"/></feComponentTransfer></filter><mask id="__lottie_element_4914_2" mask-type="alpha"><g filter="url(#__lottie_element_4921)"><rect width="430" height="430" x="0" y="0" fill="#ffffff" opacity="0"/><use xmlns:ns1="http://www.w3.org/1999/xlink" ns1:href="#__lottie_element_4914"/></g></mask><filter id="__lottie_element_4922" filterUnits="objectBoundingBox" x="0%" y="0%" width="100%" height="100%"><feComponentTransfer in="SourceGraphic"><feFuncA type="table" tableValues="1.0 0.0"/></feComponentTransfer></filter><mask id="__lottie_element_4902_2" mask-type="alpha"><g filter="url(#__lottie_element_4922)"><rect width="430" height="430" x="0" y="0" fill="#ffffff" opacity="0"/><use xmlns:ns2="http://www.w3.org/1999/xlink" ns2:href="#__lottie_element_4902"/></g></mask><filter id="__lottie_element_4923" filterUnits="objectBoundingBox" x="0%" y="0%" width="100%" height="100%"><feComponentTransfer in="SourceGraphic"><feFuncA type="table" tableValues="1.0 0.0"/></feComponentTransfer></filter><mask id="__lottie_element_4884_2" mask-type="alpha"><g filter="url(#__lottie_element_4923)"><rect width="430" height="430" x="0" y="0" fill="#ffffff" opacity="0"/><use xmlns:ns3="http://www.w3.org/1999/xlink" ns3:href="#__lottie_element_4884"/></g></mask></defs><g clip-path="url(#__lottie_element_4870)"><g clip-path="url(#__lottie_element_4872)" transform="matrix(1,0,0,1,0,0)" opacity="1" style="display: block;"><g clip-path="url(#__lottie_element_4877)" transform="matrix(1,0,0,1,0,0)" opacity="1" style="display: block;"><g transform="matrix(0.7071067690849304,-0.7071067690849304,0.7071067690849304,0.7071067690849304,211.443603515625,204.69808959960938)" opacity="1" style="display: none;"><g opacity="1" transform="matrix(1,0,0,1,0,0)"><path class="primary" fill="rgb(21,198,45)" fill-opacity="1" d=" M-58.84771728515625,21.769412994384766 C-58.84771728515625,21.769412994384766 112.9168701171875,20.97757911682129 112.9168701171875,20.97757911682129 C112.9168701171875,20.97757911682129 112.9168701171875,23.731403350830078 112.9168701171875,23.731403350830078 C112.9168701171875,23.731403350830078 144.33377075195312,23.731403350830078 144.33377075195312,23.731403350830078 C144.33377075195312,23.731403350830078 144.33377075195312,22.02018165588379 144.33377075195312,22.02018165588379 C144.33377075195312,22.02018165588379 175.7507781982422,22.02018165588379 175.7507781982422,22.02018165588379 C175.7507781982422,22.02018165588379 175.7507781982422,23.731403350830078 175.7507781982422,23.731403350830078 C175.7507781982422,23.731403350830078 207.1668701171875,23.731403350830078 207.1668701171875,23.731403350830078 C207.1668701171875,23.731403350830078 207.1668701171875,20.97757911682129 207.1668701171875,20.97757911682129 C207.1668701171875,20.97757911682129 220.13687133789062,20.97075653076172 220.13687133789062,20.97075653076172 C226.27186584472656,20.97075653076172 231.13072204589844,16.903005599975586 231.13072204589844,10.76800537109375 C231.13072204589844,10.76800537109375 231.24478149414062,5.709115505218506 231.24478149414062,5.709115505218506 C231.24478149414062,-0.4258843958377838 226.27096557617188,-5.398884296417236 220.13687133789062,-5.398884296417236 C220.13687133789062,-5.398884296417236 -58.84771728515625,-4.59932279586792 -58.84771728515625,-4.59932279586792"/></g></g><g transform="matrix(0.7071067690849304,-0.7071067690849304,0.7071067690849304,0.7071067690849304,211.443603515625,204.69808959960938)" opacity="1" style="display: block;"><g opacity="1" transform="matrix(1,0,0,1,0,0)"><path class="primary" fill="rgb(21,198,45)" fill-opacity="1" d=" M-35.37099838256836,25.871999740600586 C-35.37099838256836,25.871999740600586 112.8010025024414,25.569000244140625 112.8010025024414,25.569000244140625 C112.8010025024414,25.569000244140625 112.8010025024414,54.604000091552734 112.8010025024414,54.604000091552734 C112.8010025024414,54.604000091552734 144.2169952392578,54.604000091552734 144.2169952392578,54.604000091552734 C144.2169952392578,54.604000091552734 144.2169952392578,36.5629997253418 144.2169952392578,36.5629997253418 C144.2169952392578,36.5629997253418 175.63400268554688,36.5629997253418 175.63400268554688,36.5629997253418 C175.63400268554688,36.5629997253418 175.63400268554688,54.604000091552734 175.63400268554688,54.604000091552734 C175.63400268554688,54.604000091552734 207.05099487304688,54.604000091552734 207.05099487304688,54.604000091552734 C207.05099487304688,54.604000091552734 207.05099487304688,25.569000244140625 207.05099487304688,25.569000244140625 C207.05099487304688,25.569000244140625 220.02099609375,25.496999740600586 220.02099609375,25.496999740600586 C226.156005859375,25.496999740600586 231.1280059814453,20.52400016784668 231.1280059814453,14.388999938964844 C231.1280059814453,14.388999938964844 231.1280059814453,-0.17499999701976776 231.1280059814453,-0.17499999701976776 C231.1280059814453,-6.309999942779541 226.156005859375,-11.282999992370605 220.02099609375,-11.282999992370605 C220.02099609375,-11.282999992370605 -35.37099838256836,-10.907999992370605 -35.37099838256836,-10.907999992370605"/></g></g><g transform="matrix(0.7071067690849304,-0.7071067690849304,-0.7071067690849304,-0.7071067690849304,221.54391479492188,216.44540405273438)" opacity="1" style="display: none;"><g opacity="1" transform="matrix(1,0,0,1,0,0)"><path class="primary" fill="rgb(21,198,45)" fill-opacity="1" d=" M-55.550758361816406,22.345561981201172 C-55.550758361816406,22.345561981201172 112.90059661865234,21.622377395629883 112.90059661865234,21.622377395629883 C112.90059661865234,21.622377395629883 112.90059661865234,28.06700325012207 112.90059661865234,28.06700325012207 C112.90059661865234,28.06700325012207 144.3173828125,28.06700325012207 144.3173828125,28.06700325012207 C144.3173828125,28.06700325012207 144.3173828125,24.0625057220459 144.3173828125,24.0625057220459 C144.3173828125,24.0625057220459 175.734375,24.0625057220459 175.734375,24.0625057220459 C175.734375,24.0625057220459 175.734375,28.06700325012207 175.734375,28.06700325012207 C175.734375,28.06700325012207 207.15060424804688,28.06700325012207 207.15060424804688,28.06700325012207 C207.15060424804688,28.06700325012207 207.15060424804688,21.622377395629883 207.15060424804688,21.622377395629883 C207.15060424804688,21.622377395629883 220.12060546875,21.606401443481445 220.12060546875,21.606401443481445 C226.25559997558594,21.606401443481445 231.13034057617188,17.411521911621094 231.13034057617188,11.276520729064941 C231.13034057617188,11.276520729064941 231.22837829589844,4.882778644561768 231.22837829589844,4.882778644561768 C231.22837829589844,-1.2522215843200684 226.25482177734375,-6.225221633911133 220.12060546875,-6.225221633911133 C220.12060546875,-6.225221633911133 -55.550758361816406,-5.485283374786377 -55.550758361816406,-5.485283374786377"/></g></g></g><g mask="url(#__lottie_element_4884_2)" style="mix-blend-mode: multiply; display: block;"><g clip-path="url(#__lottie_element_4881)" transform="matrix(1,0,0,1,0,0)" opacity="0.5"><g transform="matrix(0.7071067690849304,-0.7071067690849304,0.7071067690849304,0.7071067690849304,211.443603515625,204.69808959960938)" opacity="1" style="display: none;"><g opacity="1" transform="matrix(1,0,0,1,0,0)"><path class="primary" fill="rgb(21,198,45)" fill-opacity="1" d=" M-58.84771728515625,21.769412994384766 C-58.84771728515625,21.769412994384766 112.9168701171875,20.97757911682129 112.9168701171875,20.97757911682129 C112.9168701171875,20.97757911682129 112.9168701171875,23.731403350830078 112.9168701171875,23.731403350830078 C112.9168701171875,23.731403350830078 144.33377075195312,23.731403350830078 144.33377075195312,23.731403350830078 C144.33377075195312,23.731403350830078 144.33377075195312,22.02018165588379 144.33377075195312,22.02018165588379 C144.33377075195312,22.02018165588379 175.7507781982422,22.02018165588379 175.7507781982422,22.02018165588379 C175.7507781982422,22.02018165588379 175.7507781982422,23.731403350830078 175.7507781982422,23.731403350830078 C175.7507781982422,23.731403350830078 207.1668701171875,23.731403350830078 207.1668701171875,23.731403350830078 C207.1668701171875,23.731403350830078 207.1668701171875,20.97757911682129 207.1668701171875,20.97757911682129 C207.1668701171875,20.97757911682129 220.13687133789062,20.97075653076172 220.13687133789062,20.97075653076172 C226.27186584472656,20.97075653076172 231.13072204589844,16.903005599975586 231.13072204589844,10.76800537109375 C231.13072204589844,10.76800537109375 231.24478149414062,5.709115505218506 231.24478149414062,5.709115505218506 C231.24478149414062,-0.4258843958377838 226.27096557617188,-5.398884296417236 220.13687133789062,-5.398884296417236 C220.13687133789062,-5.398884296417236 -58.84771728515625,-4.59932279586792 -58.84771728515625,-4.59932279586792"/></g></g><g transform="matrix(0.7071067690849304,-0.7071067690849304,0.7071067690849304,0.7071067690849304,211.443603515625,204.69808959960938)" opacity="1" style="display: block;"><g opacity="1" transform="matrix(1,0,0,1,0,0)"><path class="primary" fill="rgb(21,198,45)" fill-opacity="1" d=" M-35.37099838256836,25.871999740600586 C-35.37099838256836,25.871999740600586 112.8010025024414,25.569000244140625 112.8010025024414,25.569000244140625 C112.8010025024414,25.569000244140625 112.8010025024414,54.604000091552734 112.8010025024414,54.604000091552734 C112.8010025024414,54.604000091552734 144.2169952392578,54.604000091552734 144.2169952392578,54.604000091552734 C144.2169952392578,54.604000091552734 144.2169952392578,36.5629997253418 144.2169952392578,36.5629997253418 C144.2169952392578,36.5629997253418 175.63400268554688,36.5629997253418 175.63400268554688,36.5629997253418 C175.63400268554688,36.5629997253418 175.63400268554688,54.604000091552734 175.63400268554688,54.604000091552734 C175.63400268554688,54.604000091552734 207.05099487304688,54.604000091552734 207.05099487304688,54.604000091552734 C207.05099487304688,54.604000091552734 207.05099487304688,25.569000244140625 207.05099487304688,25.569000244140625 C207.05099487304688,25.569000244140625 220.02099609375,25.496999740600586 220.02099609375,25.496999740600586 C226.156005859375,25.496999740600586 231.1280059814453,20.52400016784668 231.1280059814453,14.388999938964844 C231.1280059814453,14.388999938964844 231.1280059814453,-0.17499999701976776 231.1280059814453,-0.17499999701976776 C231.1280059814453,-6.309999942779541 226.156005859375,-11.282999992370605 220.02099609375,-11.282999992370605 C220.02099609375,-11.282999992370605 -35.37099838256836,-10.907999992370605 -35.37099838256836,-10.907999992370605"/></g></g><g transform="matrix(0.7071067690849304,-0.7071067690849304,-0.7071067690849304,-0.7071067690849304,221.54391479492188,216.44540405273438)" opacity="1" style="display: none;"><g opacity="1" transform="matrix(1,0,0,1,0,0)"><path class="primary" fill="rgb(21,198,45)" fill-opacity="1" d=" M-55.550758361816406,22.345561981201172 C-55.550758361816406,22.345561981201172 112.90059661865234,21.622377395629883 112.90059661865234,21.622377395629883 C112.90059661865234,21.622377395629883 112.90059661865234,28.06700325012207 112.90059661865234,28.06700325012207 C112.90059661865234,28.06700325012207 144.3173828125,28.06700325012207 144.3173828125,28.06700325012207 C144.3173828125,28.06700325012207 144.3173828125,24.0625057220459 144.3173828125,24.0625057220459 C144.3173828125,24.0625057220459 175.734375,24.0625057220459 175.734375,24.0625057220459 C175.734375,24.0625057220459 175.734375,28.06700325012207 175.734375,28.06700325012207 C175.734375,28.06700325012207 207.15060424804688,28.06700325012207 207.15060424804688,28.06700325012207 C207.15060424804688,28.06700325012207 207.15060424804688,21.622377395629883 207.15060424804688,21.622377395629883 C207.15060424804688,21.622377395629883 220.12060546875,21.606401443481445 220.12060546875,21.606401443481445 C226.25559997558594,21.606401443481445 231.13034057617188,17.411521911621094 231.13034057617188,11.276520729064941 C231.13034057617188,11.276520729064941 231.22837829589844,4.882778644561768 231.22837829589844,4.882778644561768 C231.22837829589844,-1.2522215843200684 226.25482177734375,-6.225221633911133 220.12060546875,-6.225221633911133 C220.12060546875,-6.225221633911133 -55.550758361816406,-5.485283374786377 -55.550758361816406,-5.485283374786377"/></g></g></g></g><g transform="matrix(0.7071067690849304,-0.7071067690849304,0.7071067690849304,0.7071067690849304,211.443603515625,204.69808959960938)" opacity="1" style="display: none;"><g opacity="1" transform="matrix(1,0,0,1,0,0)"><path stroke-linecap="butt" stroke-linejoin="miter" fill-opacity="0" stroke-miterlimit="4" class="primary" stroke="rgb(21,198,45)" stroke-opacity="1" stroke-width="2" d="M0 0"/></g><path class="primary" fill="rgb(21,198,45)" fill-opacity="1" d=" M-68.88522338867188,18.910137176513672 C-68.88522338867188,22.984821319580078 -102.89431762695312,26.28697967529297 -144.84732055664062,26.28697967529297 C-186.80032348632812,26.28697967529297 -220.8102264404297,22.984821319580078 -220.8102264404297,18.910137176513672 C-220.8102264404297,14.83545207977295 -186.80032348632812,11.532483100891113 -144.84732055664062,11.532483100891113 C-102.89431762695312,11.532483100891113 -68.88522338867188,14.83545207977295 -68.88522338867188,18.910137176513672z M-99.60431671142578,18.91023063659668 C-99.60431671142578,16.483835220336914 -119.86032104492188,14.515572547912598 -144.84732055664062,14.515572547912598 C-169.83432006835938,14.515572547912598 -190.09121704101562,16.483741760253906 -190.09121704101562,18.910137176513672 C-190.09121704101562,21.336532592773438 -169.83432006835938,23.303890228271484 -144.84732055664062,23.303890228271484 C-119.86032104492188,23.303890228271484 -99.60431671142578,21.336626052856445 -99.60431671142578,18.91023063659668z"/><path class="primary" fill="rgb(21,198,45)" fill-opacity="0.5" d=" M-68.88522338867188,18.910137176513672 C-68.88522338867188,22.984821319580078 -102.89431762695312,26.28697967529297 -144.84732055664062,26.28697967529297 C-186.80032348632812,26.28697967529297 -220.8102264404297,22.984821319580078 -220.8102264404297,18.910137176513672 C-220.8102264404297,14.83545207977295 -186.80032348632812,11.532483100891113 -144.84732055664062,11.532483100891113 C-102.89431762695312,11.532483100891113 -68.88522338867188,14.83545207977295 -68.88522338867188,18.910137176513672z M-99.60431671142578,18.91023063659668 C-99.60431671142578,16.483835220336914 -119.86032104492188,14.515572547912598 -144.84732055664062,14.515572547912598 C-169.83432006835938,14.515572547912598 -190.09121704101562,16.483741760253906 -190.09121704101562,18.910137176513672 C-190.09121704101562,21.336532592773438 -169.83432006835938,23.303890228271484 -144.84732055664062,23.303890228271484 C-119.86032104492188,23.303890228271484 -99.60431671142578,21.336626052856445 -99.60431671142578,18.91023063659668z" style="mix-blend-mode: multiply;"/><g opacity="1" transform="matrix(1,0,0,1,0,0)"/></g><g transform="matrix(0.7071067690849304,-0.7071067690849304,0.7071067690849304,0.7071067690849304,211.443603515625,204.69808959960938)" opacity="1" style="display: block;"><g opacity="1" transform="matrix(1,0,0,1,0,0)"><path stroke-linecap="butt" stroke-linejoin="miter" fill-opacity="0" stroke-miterlimit="4" class="primary" stroke="rgb(21,198,45)" stroke-opacity="1" stroke-width="2" d="M0 0"/></g><g opacity="1" transform="matrix(1,0,0,1,0,0)"><path class="primary" fill="rgb(21,198,45)" fill-opacity="1" d=" M-69.00199890136719,7.142000198364258 C-69.00199890136719,-34.59199905395508 -103.01200103759766,-68.42500305175781 -144.96499633789062,-68.42500305175781 C-186.91799926757812,-68.42500305175781 -220.927001953125,-34.59199905395508 -220.927001953125,7.142000198364258 C-220.927001953125,48.875999450683594 -186.91799926757812,82.70800018310547 -144.96499633789062,82.70800018310547 C-103.01200103759766,82.70800018310547 -69.00199890136719,48.875999450683594 -69.00199890136719,7.142000198364258z M-99.72200012207031,7.142000198364258 C-99.72200012207031,31.999000549316406 -119.97799682617188,52.14799880981445 -144.96499633789062,52.14799880981445 C-169.95199584960938,52.14799880981445 -190.20799255371094,31.999000549316406 -190.20799255371094,7.142000198364258 C-190.20799255371094,-17.71500015258789 -169.95199584960938,-37.8650016784668 -144.96499633789062,-37.8650016784668 C-119.97799682617188,-37.8650016784668 -99.72200012207031,-17.71500015258789 -99.72200012207031,7.142000198364258z"/><path class="primary" fill="rgb(21,198,45)" fill-opacity="0.5" d=" M-69.00199890136719,7.142000198364258 C-69.00199890136719,-34.59199905395508 -103.01200103759766,-68.42500305175781 -144.96499633789062,-68.42500305175781 C-186.91799926757812,-68.42500305175781 -220.927001953125,-34.59199905395508 -220.927001953125,7.142000198364258 C-220.927001953125,48.875999450683594 -186.91799926757812,82.70800018310547 -144.96499633789062,82.70800018310547 C-103.01200103759766,82.70800018310547 -69.00199890136719,48.875999450683594 -69.00199890136719,7.142000198364258z M-99.72200012207031,7.142000198364258 C-99.72200012207031,31.999000549316406 -119.97799682617188,52.14799880981445 -144.96499633789062,52.14799880981445 C-169.95199584960938,52.14799880981445 -190.20799255371094,31.999000549316406 -190.20799255371094,7.142000198364258 C-190.20799255371094,-17.71500015258789 -169.95199584960938,-37.8650016784668 -144.96499633789062,-37.8650016784668 C-119.97799682617188,-37.8650016784668 -99.72200012207031,-17.71500015258789 -99.72200012207031,7.142000198364258z" style="mix-blend-mode: multiply;"/></g></g><g transform="matrix(0.7071067690849304,-0.7071067690849304,-0.7071067690849304,-0.7071067690849304,221.54391479492188,216.44540405273438)" opacity="1" style="display: none;"><g opacity="1" transform="matrix(1,0,0,1,0,0)"><path stroke-linecap="butt" stroke-linejoin="miter" fill-opacity="0" stroke-miterlimit="4" class="primary" stroke="rgb(21,198,45)" stroke-opacity="1" stroke-width="2" d="M0 0"/></g><g opacity="1" transform="matrix(1,0,0,1,0,0)"><path class="primary" fill="rgb(21,198,45)" fill-opacity="1" d=" M-68.98020935058594,-2.195436954498291 C-68.98020935058594,-11.369793891906738 -102.98943328857422,-18.80819320678711 -144.9424285888672,-18.80819320678711 C-186.8954315185547,-18.80819320678711 -220.90521240234375,-11.369793891906738 -220.90521240234375,-2.195436954498291 C-220.90521240234375,6.978919982910156 -186.8954315185547,14.416319847106934 -144.9424285888672,14.416319847106934 C-102.98943328857422,14.416319847106934 -68.98020935058594,6.978919982910156 -68.98020935058594,-2.195436954498291z M-99.69943237304688,-2.195436954498291 C-99.69943237304688,3.2692623138427734 -119.95543670654297,7.697908878326416 -144.9424285888672,7.697908878326416 C-169.92942810058594,7.697908878326416 -190.18544006347656,3.2692623138427734 -190.18544006347656,-2.195436954498291 C-190.18544006347656,-7.660136699676514 -169.92942810058594,-12.08978271484375 -144.9424285888672,-12.08978271484375 C-119.95543670654297,-12.08978271484375 -99.69943237304688,-7.660136699676514 -99.69943237304688,-2.195436954498291z"/><path class="primary" fill="rgb(21,198,45)" fill-opacity="0.5" d=" M-68.98020935058594,-2.195436954498291 C-68.98020935058594,-11.369793891906738 -102.98943328857422,-18.80819320678711 -144.9424285888672,-18.80819320678711 C-186.8954315185547,-18.80819320678711 -220.90521240234375,-11.369793891906738 -220.90521240234375,-2.195436954498291 C-220.90521240234375,6.978919982910156 -186.8954315185547,14.416319847106934 -144.9424285888672,14.416319847106934 C-102.98943328857422,14.416319847106934 -68.98020935058594,6.978919982910156 -68.98020935058594,-2.195436954498291z M-99.69943237304688,-2.195436954498291 C-99.69943237304688,3.2692623138427734 -119.95543670654297,7.697908878326416 -144.9424285888672,7.697908878326416 C-169.92942810058594,7.697908878326416 -190.18544006347656,3.2692623138427734 -190.18544006347656,-2.195436954498291 C-190.18544006347656,-7.660136699676514 -169.92942810058594,-12.08978271484375 -144.9424285888672,-12.08978271484375 C-119.95543670654297,-12.08978271484375 -99.69943237304688,-7.660136699676514 -99.69943237304688,-2.195436954498291z" style="mix-blend-mode: multiply;"/></g></g><g transform="matrix(1,0,0,1,215,215)" opacity="1" style="display: none;"><g opacity="1" transform="matrix(1,0,0,1,0,0)"><path stroke-linecap="butt" stroke-linejoin="miter" fill-opacity="0" stroke-miterlimit="4" class="primary" stroke="rgb(21,198,45)" stroke-opacity="1" stroke-width="2" d="M0 0"/></g><g opacity="1" transform="matrix(1,0,0,1,0,0)"><path class="primary" fill="rgb(21,198,45)" fill-opacity="1" d=" M-52.2571907043457,34.04099655151367 C-54.11804962158203,33.05694580078125 -92.54942321777344,66.81578826904297 -113.20025634765625,87.3187255859375 C-132.5926971435547,106.492919921875 -162.08901977539062,142.39344787597656 -161.33914184570312,143.37826538085938 C-161.3349609375,143.3837890625 -145.75746154785156,158.52220153808594 -145.7616424560547,158.5166778564453 C-146.51243591308594,157.52139282226562 -116.73188781738281,121.76874542236328 -97.1265869140625,102.59656524658203 C-76.24507904052734,82.11254119873047 -37.559051513671875,49.00040817260742 -36.00191116333008,49.85844802856445 C-35.997554779052734,49.86079406738281 -52.25283432006836,34.04334259033203 -52.2571907043457,34.04099655151367z"/><path class="primary" fill="rgb(21,198,45)" fill-opacity="0.5" d=" M-52.2571907043457,34.04099655151367 C-54.11804962158203,33.05694580078125 -92.54942321777344,66.81578826904297 -113.20025634765625,87.3187255859375 C-132.5926971435547,106.492919921875 -162.08901977539062,142.39344787597656 -161.33914184570312,143.37826538085938 C-161.3349609375,143.3837890625 -145.75746154785156,158.52220153808594 -145.7616424560547,158.5166778564453 C-146.51243591308594,157.52139282226562 -116.73188781738281,121.76874542236328 -97.1265869140625,102.59656524658203 C-76.24507904052734,82.11254119873047 -37.559051513671875,49.00040817260742 -36.00191116333008,49.85844802856445 C-35.997554779052734,49.86079406738281 -52.25283432006836,34.04334259033203 -52.2571907043457,34.04099655151367z" style="mix-blend-mode: multiply;"/></g></g><g transform="matrix(1,0,0,1,215,215)" opacity="1" style="display: none;"><g opacity="1" transform="matrix(1,0,0,1,0,0)"><path stroke-linecap="butt" stroke-linejoin="miter" fill-opacity="0" stroke-miterlimit="4" class="primary" stroke="rgb(21,198,45)" stroke-opacity="1" stroke-width="2" d="M0 0"/></g><g opacity="1" transform="matrix(1,0,0,1,0,0)"><path class="primary" fill="rgb(21,198,45)" fill-opacity="1" d=" M-51.861602783203125,34.92240524291992 C-56.754215240478516,32.335113525390625 -95.7010269165039,58.283199310302734 -118.94857788085938,80.78346252441406 C-141.92437744140625,102.86450958251953 -163.45596313476562,140.5906524658203 -161.48439025878906,143.17991638183594 C-161.47337341308594,143.1944580078125 -148.21343994140625,156.1145477294922 -148.2244415283203,156.10000610351562 C-150.19845581054688,153.4832000732422 -128.44256591796875,115.89662170410156 -105.16776275634766,93.69541931152344 C-81.4603500366211,70.9614028930664 -42.135616302490234,46.149932861328125 -38.04155349731445,48.40591049194336 C-38.03009796142578,48.41207504272461 -51.85014724731445,34.92857360839844 -51.861602783203125,34.92240524291992z"/><path class="primary" fill="rgb(21,198,45)" fill-opacity="0.5" d=" M-51.861602783203125,34.92240524291992 C-56.754215240478516,32.335113525390625 -95.7010269165039,58.283199310302734 -118.94857788085938,80.78346252441406 C-141.92437744140625,102.86450958251953 -163.45596313476562,140.5906524658203 -161.48439025878906,143.17991638183594 C-161.47337341308594,143.1944580078125 -148.21343994140625,156.1145477294922 -148.2244415283203,156.10000610351562 C-150.19845581054688,153.4832000732422 -128.44256591796875,115.89662170410156 -105.16776275634766,93.69541931152344 C-81.4603500366211,70.9614028930664 -42.135616302490234,46.149932861328125 -38.04155349731445,48.40591049194336 C-38.03009796142578,48.41207504272461 -51.85014724731445,34.92857360839844 -51.861602783203125,34.92240524291992z" style="mix-blend-mode: multiply;"/></g></g><g transform="matrix(1,0,0,1,215,215)" opacity="1" style="display: none;"><g opacity="1" transform="matrix(1,0,0,1,0,0)"><path stroke-linecap="butt" stroke-linejoin="miter" fill-opacity="0" stroke-miterlimit="4" class="primary" stroke="rgb(21,198,45)" stroke-opacity="1" stroke-width="2" d="M0 0"/></g><g opacity="1" transform="matrix(1,0,0,1,0,0)"><path class="primary" fill="rgb(21,198,45)" fill-opacity="1" d=" M-51.805511474609375,35.048030853271484 C-57.12929916381836,32.23309326171875 -96.1487045288086,57.07112503051758 -119.7656478881836,79.85477447509766 C-143.25064086914062,102.34939575195312 -163.0726776123047,141.8363800048828 -160.92726135253906,144.65408325195312 C-160.9152374267578,144.66981506347656 -147.05938720703125,158.54629516601562 -147.0714111328125,158.53057861328125 C-149.2196044921875,155.6832733154297 -127.56460571289062,118.52984619140625 -103.7679443359375,95.89768981933594 C-79.65873718261719,72.84323120117188 -42.78607940673828,45.74525451660156 -38.33155822753906,48.19953918457031 C-38.31953430175781,48.20601272583008 -51.792564392089844,35.05450439453125 -51.805511474609375,35.048030853271484z"/><path class="primary" fill="rgb(21,198,45)" fill-opacity="0.5" d=" M-51.805511474609375,35.048030853271484 C-57.12929916381836,32.23309326171875 -96.1487045288086,57.07112503051758 -119.7656478881836,79.85477447509766 C-143.25064086914062,102.34939575195312 -163.0726776123047,141.8363800048828 -160.92726135253906,144.65408325195312 C-160.9152374267578,144.66981506347656 -147.05938720703125,158.54629516601562 -147.0714111328125,158.53057861328125 C-149.2196044921875,155.6832733154297 -127.56460571289062,118.52984619140625 -103.7679443359375,95.89768981933594 C-79.65873718261719,72.84323120117188 -42.78607940673828,45.74525451660156 -38.33155822753906,48.19953918457031 C-38.31953430175781,48.20601272583008 -51.792564392089844,35.05450439453125 -51.805511474609375,35.048030853271484z" style="mix-blend-mode: multiply;"/></g></g><g transform="matrix(1,0,0,1,215,215)" opacity="1" style="display: none;"><g opacity="1" transform="matrix(1,0,0,1,0,0)"><path stroke-linecap="butt" stroke-linejoin="miter" fill-opacity="0" stroke-miterlimit="4" class="primary" stroke="rgb(21,198,45)" stroke-opacity="1" stroke-width="2" d="M0 0"/></g><g opacity="1" transform="matrix(1,0,0,1,0,0)"><path class="primary" fill="rgb(21,198,45)" fill-opacity="1" d=" M-49.81093215942383,39.49140930175781 C-70.41951751708984,28.593311309814453 -112.0382080078125,14.052209854125977 -148.7466278076172,46.90613555908203 C-190.2977294921875,84.05567932128906 -170.4942169189453,131.5316162109375 -162.1895294189453,142.43814086914062 C-162.14315795898438,142.49937438964844 -160.89695739746094,143.96780395507812 -160.94332885742188,143.9065704345703 C-169.25814819335938,132.88412475585938 -189.14805603027344,85.45684814453125 -146.85140991210938,47.55382537841797 C-108.49510955810547,13.156335830688477 -65.85951232910156,31.373680114746094 -48.61458969116211,40.87630081176758 C-48.566314697265625,40.90229797363281 -49.762657165527344,39.51740264892578 -49.81093215942383,39.49140930175781z"/><path class="primary" fill="rgb(21,198,45)" fill-opacity="0.5" d=" M-49.81093215942383,39.49140930175781 C-70.41951751708984,28.593311309814453 -112.0382080078125,14.052209854125977 -148.7466278076172,46.90613555908203 C-190.2977294921875,84.05567932128906 -170.4942169189453,131.5316162109375 -162.1895294189453,142.43814086914062 C-162.14315795898438,142.49937438964844 -160.89695739746094,143.96780395507812 -160.94332885742188,143.9065704345703 C-169.25814819335938,132.88412475585938 -189.14805603027344,85.45684814453125 -146.85140991210938,47.55382537841797 C-108.49510955810547,13.156335830688477 -65.85951232910156,31.373680114746094 -48.61458969116211,40.87630081176758 C-48.566314697265625,40.90229797363281 -49.762657165527344,39.51740264892578 -49.81093215942383,39.49140930175781z" style="mix-blend-mode: multiply;"/></g></g><g clip-path="url(#__lottie_element_4895)" transform="matrix(1,0,0,1,0,0)" opacity="1" style="display: block;"><g transform="matrix(0.7071067690849304,-0.7071067690849304,0.7071067690849304,0.7071067690849304,211.443603515625,204.69808959960938)" opacity="1" style="display: none;"><path class="primary" fill="rgb(21,198,45)" fill-opacity="1" d=" M-76.50474548339844,-7.583450794219971 C-76.50474548339844,-7.583450794219971 -75.06586456298828,-1.274510145187378 -75.15300750732422,7.197312831878662 C-75.23700714111328,15.494806289672852 -76.4640121459961,22.396183013916016 -76.4640121459961,22.396183013916016 C-76.4640121459961,22.396183013916016 -47.86716842651367,22.292173385620117 -47.86716842651367,22.292173385620117 C-40.94416809082031,22.292173385620117 -35.33116912841797,16.6790771484375 -35.33116912841797,9.756077766418457 C-35.33116912841797,9.756077766418457 -35.33116912841797,9.756077766418457 -35.33116912841797,9.756077766418457 C-35.33116912841797,9.756077766418457 -35.37099838256836,5.167996406555176 -35.37099838256836,5.167996406555176 C-35.37099838256836,5.167996406555176 -35.37099838256836,5.167996406555176 -35.37099838256836,5.167996406555176 C-35.37099838256836,-1.7550034523010254 -40.98400115966797,-7.3680033683776855 -47.90700149536133,-7.3680033683776855 C-47.90700149536133,-7.3680033683776855 -76.50474548339844,-7.583450794219971 -76.50474548339844,-7.583450794219971z"/><g opacity="1" transform="matrix(1,0,0,1,0,0)"/></g><g transform="matrix(0.7071067690849304,-0.7071067690849304,0.7071067690849304,0.7071067690849304,211.443603515625,204.69808959960938)" opacity="1" style="display: block;"><path class="primary" fill="rgb(21,198,45)" fill-opacity="1" d=" M-83.70600128173828,-30.30699920654297 C-83.70600128173828,-30.30699920654297 -74.43399810791016,-19.19300079345703 -74.51300048828125,7.677999973297119 C-74.59700012207031,36.138999938964844 -83.70600128173828,44.20000076293945 -83.70600128173828,44.20000076293945 C-83.70600128173828,44.20000076293945 -47.90700149536133,44.736000061035156 -47.90700149536133,44.736000061035156 C-40.98400115966797,44.736000061035156 -35.37099838256836,39.12200164794922 -35.37099838256836,32.19900131225586 C-35.37099838256836,32.19900131225586 -35.37099838256836,32.19900131225586 -35.37099838256836,32.19900131225586 C-35.37099838256836,32.19900131225586 -35.37099838256836,-17.236000061035156 -35.37099838256836,-17.236000061035156 C-35.37099838256836,-17.236000061035156 -35.37099838256836,-17.236000061035156 -35.37099838256836,-17.236000061035156 C-35.37099838256836,-24.159000396728516 -40.98400115966797,-29.77199935913086 -47.90700149536133,-29.77199935913086 C-47.90700149536133,-29.77199935913086 -83.70600128173828,-30.30699920654297 -83.70600128173828,-30.30699920654297z"/><g opacity="1" transform="matrix(1,0,0,1,0,0)"/></g><g transform="matrix(0.7071067690849304,-0.7071067690849304,-0.7071067690849304,-0.7071067690849304,221.54391479492188,216.44540405273438)" opacity="1" style="display: none;"><path class="primary" fill="rgb(21,198,45)" fill-opacity="1" d=" M-77.51605987548828,-10.774638175964355 C-77.51605987548828,-10.774638175964355 -74.97712707519531,-3.7908976078033447 -75.0631332397461,7.26481819152832 C-75.14713287353516,18.393978118896484 -77.48104095458984,25.458208084106445 -77.48104095458984,25.458208084106445 C-77.48104095458984,25.458208084106445 -47.872764587402344,25.444076538085938 -47.872764587402344,25.444076538085938 C-40.949764251708984,25.444076538085938 -35.336761474609375,19.830854415893555 -35.336761474609375,12.907855033874512 C-35.336761474609375,12.907855033874512 -35.336761474609375,12.907855033874512 -35.336761474609375,12.907855033874512 C-35.336761474609375,12.907855033874512 -35.37099838256836,2.021685838699341 -35.37099838256836,2.021685838699341 C-35.37099838256836,2.021685838699341 -35.37099838256836,2.021685838699341 -35.37099838256836,2.021685838699341 C-35.37099838256836,-4.9013142585754395 -40.98400115966797,-10.514313697814941 -47.90700149536133,-10.514313697814941 C-47.90700149536133,-10.514313697814941 -77.51605987548828,-10.774638175964355 -77.51605987548828,-10.774638175964355z"/><g opacity="1" transform="matrix(1,0,0,1,0,0)"/></g></g><g mask="url(#__lottie_element_4902_2)" style="mix-blend-mode: multiply; display: block;"><g clip-path="url(#__lottie_element_4899)" transform="matrix(1,0,0,1,0,0)" opacity="0.5"><g transform="matrix(0.7071067690849304,-0.7071067690849304,0.7071067690849304,0.7071067690849304,211.443603515625,204.69808959960938)" opacity="1" style="display: none;"><path class="primary" fill="rgb(21,198,45)" fill-opacity="1" d=" M-76.50474548339844,-7.583450794219971 C-76.50474548339844,-7.583450794219971 -75.06586456298828,-1.274510145187378 -75.15300750732422,7.197312831878662 C-75.23700714111328,15.494806289672852 -76.4640121459961,22.396183013916016 -76.4640121459961,22.396183013916016 C-76.4640121459961,22.396183013916016 -47.86716842651367,22.292173385620117 -47.86716842651367,22.292173385620117 C-40.94416809082031,22.292173385620117 -35.33116912841797,16.6790771484375 -35.33116912841797,9.756077766418457 C-35.33116912841797,9.756077766418457 -35.33116912841797,9.756077766418457 -35.33116912841797,9.756077766418457 C-35.33116912841797,9.756077766418457 -35.37099838256836,5.167996406555176 -35.37099838256836,5.167996406555176 C-35.37099838256836,5.167996406555176 -35.37099838256836,5.167996406555176 -35.37099838256836,5.167996406555176 C-35.37099838256836,-1.7550034523010254 -40.98400115966797,-7.3680033683776855 -47.90700149536133,-7.3680033683776855 C-47.90700149536133,-7.3680033683776855 -76.50474548339844,-7.583450794219971 -76.50474548339844,-7.583450794219971z"/><g opacity="1" transform="matrix(1,0,0,1,0,0)"/></g><g transform="matrix(0.7071067690849304,-0.7071067690849304,0.7071067690849304,0.7071067690849304,211.443603515625,204.69808959960938)" opacity="1" style="display: block;"><path class="primary" fill="rgb(21,198,45)" fill-opacity="1" d=" M-83.70600128173828,-30.30699920654297 C-83.70600128173828,-30.30699920654297 -74.43399810791016,-19.19300079345703 -74.51300048828125,7.677999973297119 C-74.59700012207031,36.138999938964844 -83.70600128173828,44.20000076293945 -83.70600128173828,44.20000076293945 C-83.70600128173828,44.20000076293945 -47.90700149536133,44.736000061035156 -47.90700149536133,44.736000061035156 C-40.98400115966797,44.736000061035156 -35.37099838256836,39.12200164794922 -35.37099838256836,32.19900131225586 C-35.37099838256836,32.19900131225586 -35.37099838256836,32.19900131225586 -35.37099838256836,32.19900131225586 C-35.37099838256836,32.19900131225586 -35.37099838256836,-17.236000061035156 -35.37099838256836,-17.236000061035156 C-35.37099838256836,-17.236000061035156 -35.37099838256836,-17.236000061035156 -35.37099838256836,-17.236000061035156 C-35.37099838256836,-24.159000396728516 -40.98400115966797,-29.77199935913086 -47.90700149536133,-29.77199935913086 C-47.90700149536133,-29.77199935913086 -83.70600128173828,-30.30699920654297 -83.70600128173828,-30.30699920654297z"/><g opacity="1" transform="matrix(1,0,0,1,0,0)"/></g><g transform="matrix(0.7071067690849304,-0.7071067690849304,-0.7071067690849304,-0.7071067690849304,221.54391479492188,216.44540405273438)" opacity="1" style="display: none;"><path class="primary" fill="rgb(21,198,45)" fill-opacity="1" d=" M-77.51605987548828,-10.774638175964355 C-77.51605987548828,-10.774638175964355 -74.97712707519531,-3.7908976078033447 -75.0631332397461,7.26481819152832 C-75.14713287353516,18.393978118896484 -77.48104095458984,25.458208084106445 -77.48104095458984,25.458208084106445 C-77.48104095458984,25.458208084106445 -47.872764587402344,25.444076538085938 -47.872764587402344,25.444076538085938 C-40.949764251708984,25.444076538085938 -35.336761474609375,19.830854415893555 -35.336761474609375,12.907855033874512 C-35.336761474609375,12.907855033874512 -35.336761474609375,12.907855033874512 -35.336761474609375,12.907855033874512 C-35.336761474609375,12.907855033874512 -35.37099838256836,2.021685838699341 -35.37099838256836,2.021685838699341 C-35.37099838256836,2.021685838699341 -35.37099838256836,2.021685838699341 -35.37099838256836,2.021685838699341 C-35.37099838256836,-4.9013142585754395 -40.98400115966797,-10.514313697814941 -47.90700149536133,-10.514313697814941 C-47.90700149536133,-10.514313697814941 -77.51605987548828,-10.774638175964355 -77.51605987548828,-10.774638175964355z"/><g opacity="1" transform="matrix(1,0,0,1,0,0)"/></g></g></g><g clip-path="url(#__lottie_element_4907)" transform="matrix(1,0,0,1,0,0)" opacity="1" style="display: block;"><g transform="matrix(0.7071067690849304,-0.7071067690849304,0.7071067690849304,0.7071067690849304,211.443603515625,204.69808959960938)" opacity="1" style="display: none;"><g opacity="1" transform="matrix(1,0,0,1,0,0)"><path class="primary" fill="rgb(21,198,45)" fill-opacity="1" d=" M-68.97665405273438,-3.7210774421691895 C-68.97665405273438,0.35360729694366455 -102.98574829101562,3.6557657718658447 -144.93875122070312,3.6557657718658447 C-186.89175415039062,3.6557657718658447 -220.9016571044922,0.35360729694366455 -220.9016571044922,-3.7210774421691895 C-220.9016571044922,-7.795762062072754 -186.89175415039062,-11.09873104095459 -144.93875122070312,-11.09873104095459 C-102.98574829101562,-11.09873104095459 -68.97665405273438,-7.795762062072754 -68.97665405273438,-3.7210774421691895z M-99.69574737548828,-3.720982551574707 C-99.69574737548828,-6.147377967834473 -119.95174407958984,-8.115641593933105 -144.93875122070312,-8.115641593933105 C-169.92575073242188,-8.115641593933105 -190.18174743652344,-6.147472858428955 -190.18174743652344,-3.7210774421691895 C-190.18174743652344,-1.2946819067001343 -169.92575073242188,0.6726762652397156 -144.93875122070312,0.6726762652397156 C-119.95174407958984,0.6726762652397156 -99.69574737548828,-1.2945871353149414 -99.69574737548828,-3.720982551574707z"/></g></g><g transform="matrix(0.7071067690849304,-0.7071067690849304,0.7071067690849304,0.7071067690849304,211.443603515625,204.69808959960938)" opacity="1" style="display: block;"><g opacity="1" transform="matrix(1,0,0,1,0,0)"><path class="primary" fill="rgb(21,198,45)" fill-opacity="1" d=" M-69.00199890136719,7.142000198364258 C-69.00199890136719,-34.59199905395508 -103.01200103759766,-68.42500305175781 -144.96499633789062,-68.42500305175781 C-186.91799926757812,-68.42500305175781 -220.927001953125,-34.59199905395508 -220.927001953125,7.142000198364258 C-220.927001953125,48.875999450683594 -186.91799926757812,82.70800018310547 -144.96499633789062,82.70800018310547 C-103.01200103759766,82.70800018310547 -69.00199890136719,48.875999450683594 -69.00199890136719,7.142000198364258z M-99.72200012207031,7.142000198364258 C-99.72200012207031,31.999000549316406 -119.97799682617188,52.14799880981445 -144.96499633789062,52.14799880981445 C-169.95199584960938,52.14799880981445 -190.20799255371094,31.999000549316406 -190.20799255371094,7.142000198364258 C-190.20799255371094,-17.71500015258789 -169.95199584960938,-37.8650016784668 -144.96499633789062,-37.8650016784668 C-119.97799682617188,-37.8650016784668 -99.72200012207031,-17.71500015258789 -99.72200012207031,7.142000198364258z"/></g></g><g transform="matrix(0.7071067690849304,-0.7071067690849304,-0.7071067690849304,-0.7071067690849304,221.54391479492188,216.44540405273438)" opacity="1" style="display: none;"><g opacity="1" transform="matrix(1,0,0,1,0,0)"><path class="primary" fill="rgb(21,198,45)" fill-opacity="1" d=" M-68.90161895751953,17.257556915283203 C-68.90161895751953,8.083199501037598 -102.91084289550781,0.6448001265525818 -144.8638458251953,0.6448001265525818 C-186.8168487548828,0.6448001265525818 -220.82662963867188,8.083199501037598 -220.82662963867188,17.257556915283203 C-220.82662963867188,26.431913375854492 -186.8168487548828,33.86931228637695 -144.8638458251953,33.86931228637695 C-102.91084289550781,33.86931228637695 -68.90161895751953,26.431913375854492 -68.90161895751953,17.257556915283203z M-99.62084197998047,17.257556915283203 C-99.62084197998047,22.72225570678711 -119.87684631347656,27.150903701782227 -144.8638458251953,27.150903701782227 C-169.85084533691406,27.150903701782227 -190.1076202392578,22.72225570678711 -190.1076202392578,17.257556915283203 C-190.1076202392578,11.79285717010498 -169.85084533691406,7.363210678100586 -144.8638458251953,7.363210678100586 C-119.87684631347656,7.363210678100586 -99.62084197998047,11.79285717010498 -99.62084197998047,17.257556915283203z"/></g></g></g><g mask="url(#__lottie_element_4914_2)" style="mix-blend-mode: multiply; display: block;"><g clip-path="url(#__lottie_element_4911)" transform="matrix(1,0,0,1,0,0)" opacity="0.5"><g transform="matrix(0.7071067690849304,-0.7071067690849304,0.7071067690849304,0.7071067690849304,211.443603515625,204.69808959960938)" opacity="1" style="display: none;"><g opacity="1" transform="matrix(1,0,0,1,0,0)"><path class="primary" fill="rgb(21,198,45)" fill-opacity="1" d=" M-68.97665405273438,-3.7210774421691895 C-68.97665405273438,0.35360729694366455 -102.98574829101562,3.6557657718658447 -144.93875122070312,3.6557657718658447 C-186.89175415039062,3.6557657718658447 -220.9016571044922,0.35360729694366455 -220.9016571044922,-3.7210774421691895 C-220.9016571044922,-7.795762062072754 -186.89175415039062,-11.09873104095459 -144.93875122070312,-11.09873104095459 C-102.98574829101562,-11.09873104095459 -68.97665405273438,-7.795762062072754 -68.97665405273438,-3.7210774421691895z M-99.69574737548828,-3.720982551574707 C-99.69574737548828,-6.147377967834473 -119.95174407958984,-8.115641593933105 -144.93875122070312,-8.115641593933105 C-169.92575073242188,-8.115641593933105 -190.18174743652344,-6.147472858428955 -190.18174743652344,-3.7210774421691895 C-190.18174743652344,-1.2946819067001343 -169.92575073242188,0.6726762652397156 -144.93875122070312,0.6726762652397156 C-119.95174407958984,0.6726762652397156 -99.69574737548828,-1.2945871353149414 -99.69574737548828,-3.720982551574707z"/></g></g><g transform="matrix(0.7071067690849304,-0.7071067690849304,0.7071067690849304,0.7071067690849304,211.443603515625,204.69808959960938)" opacity="1" style="display: block;"><g opacity="1" transform="matrix(1,0,0,1,0,0)"><path class="primary" fill="rgb(21,198,45)" fill-opacity="1" d=" M-69.00199890136719,7.142000198364258 C-69.00199890136719,-34.59199905395508 -103.01200103759766,-68.42500305175781 -144.96499633789062,-68.42500305175781 C-186.91799926757812,-68.42500305175781 -220.927001953125,-34.59199905395508 -220.927001953125,7.142000198364258 C-220.927001953125,48.875999450683594 -186.91799926757812,82.70800018310547 -144.96499633789062,82.70800018310547 C-103.01200103759766,82.70800018310547 -69.00199890136719,48.875999450683594 -69.00199890136719,7.142000198364258z M-99.72200012207031,7.142000198364258 C-99.72200012207031,31.999000549316406 -119.97799682617188,52.14799880981445 -144.96499633789062,52.14799880981445 C-169.95199584960938,52.14799880981445 -190.20799255371094,31.999000549316406 -190.20799255371094,7.142000198364258 C-190.20799255371094,-17.71500015258789 -169.95199584960938,-37.8650016784668 -144.96499633789062,-37.8650016784668 C-119.97799682617188,-37.8650016784668 -99.72200012207031,-17.71500015258789 -99.72200012207031,7.142000198364258z"/></g></g><g transform="matrix(0.7071067690849304,-0.7071067690849304,-0.7071067690849304,-0.7071067690849304,221.54391479492188,216.44540405273438)" opacity="1" style="display: none;"><g opacity="1" transform="matrix(1,0,0,1,0,0)"><path class="primary" fill="rgb(21,198,45)" fill-opacity="1" d=" M-68.90161895751953,17.257556915283203 C-68.90161895751953,8.083199501037598 -102.91084289550781,0.6448001265525818 -144.8638458251953,0.6448001265525818 C-186.8168487548828,0.6448001265525818 -220.82662963867188,8.083199501037598 -220.82662963867188,17.257556915283203 C-220.82662963867188,26.431913375854492 -186.8168487548828,33.86931228637695 -144.8638458251953,33.86931228637695 C-102.91084289550781,33.86931228637695 -68.90161895751953,26.431913375854492 -68.90161895751953,17.257556915283203z M-99.62084197998047,17.257556915283203 C-99.62084197998047,22.72225570678711 -119.87684631347656,27.150903701782227 -144.8638458251953,27.150903701782227 C-169.85084533691406,27.150903701782227 -190.1076202392578,22.72225570678711 -190.1076202392578,17.257556915283203 C-190.1076202392578,11.79285717010498 -169.85084533691406,7.363210678100586 -144.8638458251953,7.363210678100586 C-119.87684631347656,7.363210678100586 -99.62084197998047,11.79285717010498 -99.62084197998047,17.257556915283203z"/></g></g></g></g><g transform="matrix(1,0,0,1,215,215)" opacity="1" style="display: none;"><g opacity="1" transform="matrix(1,0,0,1,0,0)"><path stroke-linecap="butt" stroke-linejoin="miter" fill-opacity="0" stroke-miterlimit="4" class="primary" stroke="rgb(21,198,45)" stroke-opacity="1" stroke-width="2" d="M0 0"/></g><g opacity="1" transform="matrix(1,0,0,1,0,0)"><path class="primary" fill="rgb(21,198,45)" fill-opacity="1" d=" M-48.37635040283203,40.65913391113281 C-31.237808227539062,56.57809829711914 -12.50624942779541,112.25218963623047 -54.9221305847168,150.1881561279297 C-102.9842529296875,193.1351776123047 -153.9666748046875,155.28958129882812 -161.27386474609375,143.69088745117188 C-161.31471252441406,143.6250457763672 -160.01806640625,144.75082397460938 -159.9764404296875,144.8157196044922 C-151.66888427734375,156.69822692871094 -101.85135650634766,194.56796264648438 -52.92491912841797,150.74501037597656 C-8.595780372619629,111.01394653320312 -32.83406448364258,55.918128967285156 -47.07515335083008,42.225746154785156 C-47.1150016784668,42.18741989135742 -48.4171028137207,40.62171173095703 -48.37635040283203,40.65913391113281z"/></g></g><g transform="matrix(1,0,0,1,215,215)" opacity="1" style="display: none;"><g opacity="1" transform="matrix(1,0,0,1,0,0)"><path stroke-linecap="butt" stroke-linejoin="miter" fill-opacity="0" stroke-miterlimit="4" class="primary" stroke="rgb(21,198,45)" stroke-opacity="1" stroke-width="2" d="M0 0"/></g><g opacity="1" transform="matrix(1,0,0,1,0,0)"><path class="primary" fill="rgb(21,198,45)" fill-opacity="1" d=" M-51.328285217285156,35.38764190673828 C-46.51229476928711,39.8133659362793 -69.80464172363281,82.25056457519531 -95.41583251953125,106.76275634765625 C-121.26904296875,131.322998046875 -159.19996643066406,146.75401306152344 -161.25,143.5 C-161.26177978515625,143.48171997070312 -147.22349548339844,157.57357788085938 -147.2117156982422,157.5918426513672 C-145.16168212890625,160.87815856933594 -127.76172637939453,165.20228576660156 -82.27892303466797,118.95521545410156 C-43.4342041015625,83.56526184082031 -34.165122985839844,51.921714782714844 -38.167362213134766,48.114131927490234 C-38.17814254760742,48.103389739990234 -51.340065002441406,35.3769416809082 -51.328285217285156,35.38764190673828z"/></g></g></g></g></svg>